<svg width="192" height="44" viewBox="0 0 192 44" fill="none" xmlns="http://www.w3.org/2000/svg">
<path d="M0.979492 11.2512C0.979492 10.065 1.20607 8.95211 1.65922 7.91252C2.11237 6.87293 2.72545 5.96665 3.49848 5.19363C4.28484 4.40726 5.19779 3.78753 6.23738 3.33436C7.27694 2.88122 8.38982 2.65464 9.576 2.65464H22.7307V8.39233H9.576C9.17619 8.39233 8.80301 8.46563 8.45648 8.61222C8.10995 8.75884 7.8034 8.96542 7.53684 9.23199C7.28361 9.48522 7.0837 9.78509 6.93708 10.1316C6.79049 10.4782 6.71716 10.8513 6.71716 11.2512C6.71716 11.651 6.79049 12.0308 6.93708 12.3907C7.0837 12.7372 7.28361 13.0438 7.53684 13.3103C7.8034 13.5636 8.10995 13.7635 8.45648 13.9101C8.80301 14.0567 9.17619 14.13 9.576 14.13H15.3137C16.4999 14.13 17.6128 14.3566 18.6524 14.8097C19.7053 15.2496 20.6182 15.8626 21.3912 16.649C22.1776 17.422 22.7907 18.335 23.2305 19.3879C23.6837 20.4274 23.9102 21.5403 23.9102 22.7265C23.9102 23.9126 23.6837 25.0255 23.2305 26.0652C22.7907 27.1046 22.1776 28.0178 21.3912 28.8041C20.6182 29.5771 19.7053 30.1903 18.6524 30.6435C17.6128 31.0966 16.4999 31.3231 15.3137 31.3231H2.57885V25.5854H15.3137C15.7136 25.5854 16.0867 25.5122 16.4333 25.3655C16.7798 25.2188 17.0797 25.019 17.3329 24.7656C17.5994 24.4992 17.806 24.1927 17.9526 23.8462C18.0993 23.4994 18.1726 23.1263 18.1726 22.7265C18.1726 22.3267 18.0993 21.9535 17.9526 21.607C17.806 21.2605 17.5994 20.9606 17.3329 20.7074C17.0797 20.4408 16.7798 20.2342 16.4333 20.0876C16.0867 19.941 15.7136 19.8677 15.3137 19.8677H9.576C8.38982 19.8677 7.27694 19.6411 6.23738 19.188C5.19779 18.7348 4.28484 18.1217 3.49848 17.3487C2.72545 16.5624 2.11237 15.6494 1.65922 14.6098C1.20607 13.5569 0.979492 12.4374 0.979492 11.2512ZM33.4265 8.39233V19.8677H39.1642C39.9505 19.8677 40.6902 19.7211 41.3832 19.4279C42.0761 19.1213 42.6825 18.7082 43.2024 18.1884C43.7222 17.6686 44.1289 17.0621 44.422 16.3691C44.7284 15.6627 44.8817 14.9164 44.8817 14.13C44.8817 13.3437 44.7284 12.604 44.422 11.9109C44.1289 11.2045 43.7222 10.5914 43.2024 10.0716C42.6825 9.55184 42.0761 9.14535 41.3832 8.85214C40.6902 8.54559 39.9505 8.39233 39.1642 8.39233H33.4265ZM33.4265 31.3231H27.6887V2.65464H39.1642C40.2169 2.65464 41.2299 2.79459 42.203 3.07446C43.1757 3.34103 44.082 3.72754 44.9217 4.234C45.7747 4.72715 46.5476 5.32691 47.2409 6.03328C47.9472 6.72634 48.547 7.49936 49.0402 8.35235C49.5464 9.20534 49.9329 10.1183 50.1997 11.0912C50.4794 12.0642 50.6193 13.0771 50.6193 14.13C50.6193 15.7027 50.3197 17.1888 49.7198 18.5882C49.1199 19.9743 48.3005 21.1872 47.2607 22.2268C46.2213 23.2662 45.0017 24.086 43.6022 24.6859C42.2163 25.2854 40.7368 25.5854 39.1642 25.5854H33.4265V31.3231ZM70.8711 19.8677V14.13C70.8711 13.3437 70.7179 12.604 70.4115 11.9109C70.1184 11.2045 69.7117 10.5914 69.1919 10.0716C68.672 9.55184 68.0591 9.14535 67.3528 8.85214C66.6596 8.54559 65.9198 8.39233 65.1335 8.39233C64.3472 8.39233 63.6009 8.54559 62.8946 8.85214C62.2014 9.14535 61.595 9.55184 61.0751 10.0716C60.5556 10.5914 60.1421 11.2045 59.8357 11.9109C59.5425 12.604 59.3958 13.3437 59.3958 14.13V19.8677H70.8711ZM76.6088 31.3231H70.8711V25.5854H59.3958V31.3231H53.6783V14.13C53.6783 12.544 53.9779 11.0579 54.5778 9.67182C55.1777 8.27236 55.9907 7.05286 57.0168 6.01327C58.0565 4.97371 59.2693 4.15404 60.6554 3.55428C62.0547 2.95452 63.5476 2.65464 65.1335 2.65464C66.7197 2.65464 68.2058 2.95452 69.5917 3.55428C70.9912 4.15404 72.2108 4.97371 73.2502 6.01327C74.2899 7.05286 75.1094 8.27236 75.7093 9.67182C76.3092 11.0579 76.6088 12.544 76.6088 14.13V31.3231ZM87.3245 8.39233V19.8677H93.0622C93.8485 19.8677 94.5883 19.7211 95.2815 19.4279C95.9744 19.1213 96.5809 18.7082 97.1007 18.1884C97.6206 17.6686 98.0269 17.0621 98.32 16.3691C98.6268 15.6627 98.78 14.9164 98.78 14.13C98.78 13.3437 98.6268 12.604 98.32 11.9109C98.0269 11.2045 97.6206 10.5914 97.1007 10.0716C96.5809 9.55184 95.9744 9.14535 95.2815 8.85214C94.5883 8.54559 93.8485 8.39233 93.0622 8.39233H87.3245ZM87.3245 31.3231H81.5869V2.65464H93.0622C94.1152 2.65464 95.128 2.79459 96.101 3.07446C97.074 3.34103 97.9804 3.72754 98.82 4.234C99.673 4.72715 100.446 5.32691 101.139 6.03328C101.845 6.72634 102.445 7.49936 102.938 8.35235C103.445 9.20534 103.831 10.1183 104.098 11.0912C104.378 12.0642 104.518 13.0771 104.518 14.13C104.518 15.1163 104.391 16.0759 104.138 17.0089C103.898 17.9418 103.545 18.8281 103.078 19.6678C102.625 20.5074 102.065 21.2804 101.399 21.9868C100.733 22.6933 99.9863 23.3062 99.16 23.8261L102.339 31.3231H96.2409L93.7421 25.5454L87.3245 25.5854V31.3231ZM125.169 19.8677V14.13C125.169 13.3437 125.016 12.604 124.71 11.9109C124.416 11.2045 124.01 10.5914 123.49 10.0716C122.97 9.55184 122.357 9.14535 121.651 8.85214C120.958 8.54559 120.218 8.39233 119.432 8.39233C118.645 8.39233 117.899 8.54559 117.192 8.85214C116.5 9.14535 115.893 9.55184 115.373 10.0716C114.853 10.5914 114.44 11.2045 114.134 11.9109C113.841 12.604 113.694 13.3437 113.694 14.13V19.8677H125.169ZM130.907 31.3231H125.169V25.5854H113.694V31.3231H107.976V14.13C107.976 12.544 108.276 11.0579 108.876 9.67182C109.476 8.27236 110.289 7.05286 111.315 6.01327C112.355 4.97371 113.567 4.15404 114.953 3.55428C116.353 2.95452 117.846 2.65464 119.432 2.65464C121.018 2.65464 122.504 2.95452 123.89 3.55428C125.289 4.15404 126.509 4.97371 127.548 6.01327C128.588 7.05286 129.408 8.27236 130.007 9.67182C130.607 11.0579 130.907 12.544 130.907 14.13V31.3231ZM158.856 16.9888C158.856 18.3083 158.682 19.5811 158.336 20.8073C158.003 22.0202 157.523 23.1598 156.896 24.2259C156.27 25.2789 155.524 26.2451 154.657 27.1248C153.791 27.9911 152.825 28.7374 151.759 29.364C150.692 29.9902 149.546 30.4766 148.32 30.8234C147.107 31.1565 145.841 31.3231 144.522 31.3231H135.885V2.65464H144.522C145.841 2.65464 147.107 2.8279 148.32 3.17443C149.546 3.50763 150.692 3.98744 151.759 4.61384C152.825 5.24028 153.791 5.9933 154.657 6.87293C155.524 7.73926 156.27 8.70552 156.896 9.77176C157.523 10.8247 158.003 11.9642 158.336 13.1904C158.682 14.4032 158.856 15.6694 158.856 16.9888ZM153.118 16.9888C153.118 15.8027 152.891 14.6898 152.438 13.6502C151.998 12.6106 151.386 11.7043 150.599 10.9313C149.826 10.145 148.913 9.5252 147.86 9.07206C146.821 8.61889 145.708 8.39233 144.522 8.39233H141.663V25.5854H144.522C145.708 25.5854 146.821 25.3655 147.86 24.9256C148.913 24.4725 149.826 23.8596 150.599 23.0863C151.386 22.3 151.998 21.3871 152.438 20.3475C152.891 19.2946 153.118 18.175 153.118 16.9888ZM190.763 17.1088C190.763 18.4682 190.583 19.7811 190.223 21.0472C189.876 22.3 189.383 23.4796 188.744 24.5857C188.104 25.6788 187.331 26.6781 186.424 27.5845C185.518 28.4908 184.519 29.2706 183.426 29.9235C182.333 30.5634 181.153 31.0566 179.887 31.4031C178.621 31.7629 177.308 31.9428 175.949 31.9428C174.589 31.9428 173.277 31.7629 172.01 31.4031C170.758 31.0566 169.578 30.5634 168.472 29.9235C167.379 29.2706 166.379 28.4908 165.473 27.5845C164.567 26.6781 163.787 25.6788 163.134 24.5857C162.494 23.4796 161.995 22.3 161.635 21.0472C161.288 19.7811 161.115 18.4682 161.115 17.1088C161.115 15.7493 161.288 14.4366 161.635 13.1704C161.995 11.9042 162.494 10.7247 163.134 9.63184C163.787 8.53893 164.567 7.53935 165.473 6.63304C166.379 5.72673 167.379 4.95371 168.472 4.31396C169.578 3.67422 170.758 3.1811 172.01 2.83457C173.277 2.4747 174.589 2.2948 175.949 2.2948C177.308 2.2948 178.621 2.4747 179.887 2.83457C181.153 3.1811 182.333 3.67422 183.426 4.31396C184.519 4.95371 185.518 5.72673 186.424 6.63304C187.331 7.53935 188.104 8.53893 188.744 9.63184C189.383 10.7247 189.876 11.9042 190.223 13.1704C190.583 14.4366 190.763 15.7493 190.763 17.1088ZM185.065 17.1088C185.065 15.856 184.825 14.6764 184.345 13.5702C183.865 12.4507 183.213 11.4844 182.386 10.6714C181.573 9.84508 180.607 9.192 179.487 8.71219C178.381 8.23238 177.202 7.99249 175.949 7.99249C174.683 7.99249 173.497 8.23238 172.39 8.71219C171.284 9.192 170.318 9.84508 169.492 10.6714C168.665 11.4844 168.012 12.4507 167.532 13.5702C167.052 14.6764 166.813 15.856 166.813 17.1088C166.813 18.3616 167.052 19.5411 167.532 20.6474C168.012 21.7403 168.665 22.6998 169.492 23.5261C170.318 24.3524 171.284 25.0057 172.39 25.4855C173.497 25.9654 174.683 26.2051 175.949 26.2051C177.202 26.2051 178.381 25.9654 179.487 25.4855C180.607 25.0057 181.573 24.3524 182.386 23.5261C183.213 22.6998 183.865 21.7403 184.345 20.6474C184.825 19.5411 185.065 18.3616 185.065 17.1088Z" fill="#0F80D1"/>
<path d="M31.9725 39.558C31.9725 39.9141 31.9118 40.2392 31.7902 40.5332C31.6686 40.8273 31.5032 41.0804 31.2942 41.2926C31.0848 41.5016 30.8389 41.6641 30.5562 41.7801C30.2763 41.8962 29.9752 41.9538 29.6529 41.9538C29.3335 41.9538 29.0324 41.8946 28.7496 41.7758C28.4698 41.657 28.2238 41.4917 28.0118 41.2798C27.8026 41.0677 27.6372 40.8161 27.5156 40.5249C27.394 40.2308 27.3333 39.9085 27.3333 39.558V35.5208H28.4952V37.6411C28.5574 37.562 28.6323 37.4913 28.72 37.4293C28.8104 37.3669 28.9066 37.3161 29.0083 37.2764C29.1129 37.237 29.2204 37.2072 29.3306 37.1874C29.4409 37.1647 29.5483 37.1535 29.6529 37.1535C29.9752 37.1535 30.2763 37.2143 30.5562 37.3359C30.8389 37.4547 31.0848 37.6213 31.2942 37.8362C31.5032 38.0512 31.6686 38.3055 31.7902 38.5996C31.9118 38.8908 31.9725 39.2103 31.9725 39.558ZM30.8064 39.558C30.8064 39.3828 30.7753 39.2203 30.7131 39.0704C30.6537 38.9175 30.5717 38.7863 30.4671 38.6759C30.3625 38.5658 30.2396 38.4795 30.0982 38.4172C29.9597 38.3552 29.8112 38.3238 29.6529 38.3238C29.4946 38.3238 29.3448 38.3592 29.2034 38.4299C29.0649 38.4979 28.9433 38.5897 28.8387 38.7057C28.7341 38.8186 28.6521 38.9501 28.5927 39.0999C28.5334 39.2469 28.5037 39.3995 28.5037 39.558C28.5037 39.7333 28.5334 39.8958 28.5927 40.0456C28.6521 40.1955 28.7341 40.3254 28.8387 40.4358C28.9433 40.546 29.0649 40.6337 29.2034 40.6989C29.3448 40.7609 29.4946 40.7919 29.6529 40.7919C29.8112 40.7919 29.9597 40.7609 30.0982 40.6989C30.2396 40.6337 30.3625 40.546 30.4671 40.4358C30.5717 40.3254 30.6537 40.1955 30.7131 40.0456C30.7753 39.8958 30.8064 39.7333 30.8064 39.558ZM33.8851 43.5993V42.4331L34.5297 42.4418C34.6426 42.4418 34.7514 42.4231 34.856 42.3865C34.9608 42.3496 35.057 42.2988 35.1444 42.2339C35.235 42.1688 35.3141 42.0909 35.382 42.0007C35.45 41.9129 35.5049 41.8168 35.5473 41.7122C35.4202 41.7659 35.2902 41.8195 35.1571 41.8735C35.0272 41.9272 34.8957 41.9538 34.7629 41.9538C34.4828 41.9538 34.2201 41.9045 33.9741 41.8056C33.7282 41.7066 33.5117 41.5667 33.3252 41.3856C33.1413 41.202 32.9958 40.9799 32.8885 40.72C32.7837 40.4569 32.7316 40.1629 32.7316 39.8378V37.3272H33.8851V39.8378C33.8851 39.9991 33.9077 40.1402 33.9527 40.2618C34.0008 40.3806 34.0644 40.4811 34.1438 40.563C34.2229 40.6421 34.3147 40.7017 34.4192 40.7411C34.5269 40.7808 34.6413 40.8006 34.7629 40.8006C34.8814 40.8006 34.9934 40.7736 35.0979 40.72C35.2052 40.6635 35.2986 40.59 35.3777 40.4994C35.4568 40.4089 35.5191 40.3071 35.5644 40.1942C35.6094 40.0782 35.632 39.9594 35.632 39.8378V37.3272H36.7983V41.2966C36.7955 41.6161 36.7335 41.9157 36.6119 42.1958C36.4903 42.4756 36.3234 42.72 36.1112 42.9294C35.9022 43.1384 35.6575 43.3041 35.3777 43.4256C35.0979 43.5472 34.7983 43.6077 34.4788 43.6077L33.8851 43.5993ZM46.5475 38.8539C46.5475 39.1424 46.5093 39.4209 46.433 39.6896C46.3595 39.9551 46.2547 40.2054 46.1191 40.4402C45.9833 40.6719 45.8195 40.884 45.6272 41.076C45.4349 41.2684 45.223 41.4337 44.991 41.5723C44.7593 41.7079 44.509 41.8127 44.2404 41.8862C43.9718 41.9625 43.6935 42.0007 43.4051 42.0007C43.1166 42.0007 42.8381 41.9625 42.5698 41.8862C42.3039 41.8127 42.0536 41.7079 41.8191 41.5723C41.5871 41.4337 41.3753 41.2684 41.183 41.076C40.9907 40.884 40.8253 40.6719 40.6867 40.4402C40.5511 40.2054 40.4451 39.9551 40.3687 39.6896C40.2952 39.4209 40.2583 39.1424 40.2583 38.8539C40.2583 38.5658 40.2952 38.2872 40.3687 38.0186C40.4451 37.75 40.5511 37.4997 40.6867 37.268C40.8253 37.0363 40.9907 36.8241 41.183 36.6318C41.3753 36.4395 41.5871 36.2757 41.8191 36.1399C42.0536 36.0043 42.3039 35.8998 42.5698 35.8263C42.8381 35.7497 43.1166 35.7115 43.4051 35.7115C43.6935 35.7115 43.9718 35.7497 44.2404 35.8263C44.509 35.8998 44.7593 36.0043 44.991 36.1399C45.223 36.2757 45.4349 36.4395 45.6272 36.6318C45.8195 36.8241 45.9833 37.0363 46.1191 37.268C46.2547 37.4997 46.3595 37.75 46.433 38.0186C46.5093 38.2872 46.5475 38.5658 46.5475 38.8539ZM45.3387 38.8539C45.3387 38.5884 45.2879 38.3381 45.1861 38.1033C45.0844 37.866 44.9457 37.661 44.7705 37.4885C44.598 37.3133 44.393 37.1746 44.1557 37.0729C43.9209 36.9712 43.6709 36.9203 43.4051 36.9203C43.1365 36.9203 42.8849 36.9712 42.6501 37.0729C42.4156 37.1746 42.2106 37.3133 42.0353 37.4885C41.8601 37.661 41.7214 37.866 41.6197 38.1033C41.518 38.3381 41.4671 38.5884 41.4671 38.8539C41.4671 39.1198 41.518 39.3701 41.6197 39.6046C41.7214 39.8366 41.8601 40.0401 42.0353 40.2153C42.2106 40.3906 42.4156 40.5292 42.6501 40.6309C42.8849 40.7327 43.1365 40.7835 43.4051 40.7835C43.6709 40.7835 43.9209 40.7327 44.1557 40.6309C44.393 40.5292 44.598 40.3906 44.7705 40.2153C44.9457 40.0401 45.0844 39.8366 45.1861 39.6046C45.2879 39.3701 45.3387 39.1198 45.3387 38.8539ZM48.7398 41.8692H47.5227V35.7881H48.7398V38.8285L51.0041 35.7881H52.3866L50.4657 38.3536L52.3866 41.8692H51.0041L49.6685 39.4095L48.7398 40.652V41.8692ZM55.6773 41.8692H54.4645V37.005H52.6366V35.7881H57.5008V37.005H55.6773V41.8692ZM61.7118 39.4392V38.2221C61.7118 38.0552 61.6792 37.8986 61.6141 37.7516C61.552 37.6017 61.4658 37.4715 61.3554 37.3614C61.2453 37.2509 61.1153 37.1647 60.9652 37.1027C60.8181 37.0375 60.6615 37.005 60.4946 37.005C60.3278 37.005 60.1696 37.0375 60.0197 37.1027C59.8727 37.1647 59.744 37.2509 59.6336 37.3614C59.5235 37.4715 59.4357 37.6017 59.3709 37.7516C59.3085 37.8986 59.2775 38.0552 59.2775 38.2221V39.4392H61.7118ZM62.9289 41.8692H61.7118V40.652H59.2775V41.8692H58.0647V38.2221C58.0647 37.8859 58.1283 37.5704 58.2555 37.2764C58.3826 36.9795 58.5551 36.7208 58.7728 36.5003C58.9934 36.2798 59.2505 36.1061 59.5446 35.9789C59.8414 35.8517 60.1581 35.7881 60.4946 35.7881C60.8312 35.7881 61.1463 35.8517 61.4404 35.9789C61.7372 36.1061 61.9959 36.2798 62.2164 36.5003C62.437 36.7208 62.6107 36.9795 62.7378 37.2764C62.865 37.5704 62.9289 37.8859 62.9289 38.2221V41.8692ZM65.3756 37.005V39.4392H66.5924C66.7593 39.4392 66.9162 39.4082 67.0633 39.3459C67.2103 39.2811 67.339 39.1933 67.4491 39.0832C67.5596 38.9727 67.6458 38.844 67.7078 38.697C67.7729 38.5472 67.8055 38.389 67.8055 38.2221C67.8055 38.0552 67.7729 37.8986 67.7078 37.7516C67.6458 37.6017 67.5596 37.4715 67.4491 37.3614C67.339 37.2509 67.2103 37.1647 67.0633 37.1027C66.9162 37.0375 66.7593 37.005 66.5924 37.005H65.3756ZM65.3756 41.8692H64.1584V35.7881H66.5924C66.8161 35.7881 67.0307 35.8176 67.2373 35.8772C67.4435 35.9336 67.6359 36.0155 67.8139 36.1231C67.9947 36.2277 68.1588 36.3548 68.3058 36.5046C68.4557 36.6517 68.5828 36.8158 68.6874 36.9966C68.795 37.1774 68.8769 37.3713 68.9333 37.5776C68.9929 37.7838 69.0223 37.9988 69.0223 38.2221C69.0223 38.5559 68.9588 38.871 68.8316 39.1678C68.7044 39.4619 68.5307 39.719 68.3102 39.9396C68.0896 40.1601 67.831 40.3341 67.5341 40.4613C67.2401 40.5884 66.9262 40.652 66.5924 40.652H65.3756V41.8692ZM75.8711 38.8539C75.8711 39.1424 75.8329 39.4209 75.7566 39.6896C75.6831 39.9551 75.5786 40.2054 75.4427 40.4402C75.3072 40.6719 75.1431 40.884 74.9508 41.076C74.7585 41.2684 74.5466 41.4337 74.3146 41.5723C74.0829 41.7079 73.8326 41.8127 73.564 41.8862C73.2957 41.9625 73.0171 42.0007 72.7287 42.0007C72.4402 42.0007 72.162 41.9625 71.8934 41.8862C71.6275 41.8127 71.3772 41.7079 71.1427 41.5723C70.9107 41.4337 70.6989 41.2684 70.5065 41.076C70.3142 40.884 70.1489 40.6719 70.0103 40.4402C69.8747 40.2054 69.7686 39.9551 69.6923 39.6896C69.6188 39.4209 69.5822 39.1424 69.5822 38.8539C69.5822 38.5658 69.6188 38.2872 69.6923 38.0186C69.7686 37.75 69.8747 37.4997 70.0103 37.268C70.1489 37.0363 70.3142 36.8241 70.5065 36.6318C70.6989 36.4395 70.9107 36.2757 71.1427 36.1399C71.3772 36.0043 71.6275 35.8998 71.8934 35.8263C72.162 35.7497 72.4402 35.7115 72.7287 35.7115C73.0171 35.7115 73.2957 35.7497 73.564 35.8263C73.8326 35.8998 74.0829 36.0043 74.3146 36.1399C74.5466 36.2757 74.7585 36.4395 74.9508 36.6318C75.1431 36.8241 75.3072 37.0363 75.4427 37.268C75.5786 37.4997 75.6831 37.75 75.7566 38.0186C75.8329 38.2872 75.8711 38.5658 75.8711 38.8539ZM74.6626 38.8539C74.6626 38.5884 74.6114 38.3381 74.5097 38.1033C74.408 37.866 74.2696 37.661 74.0941 37.4885C73.9216 37.3133 73.7169 37.1746 73.4793 37.0729C73.2448 36.9712 72.9945 36.9203 72.7287 36.9203C72.46 36.9203 72.2085 36.9712 71.974 37.0729C71.7392 37.1746 71.5342 37.3133 71.3589 37.4885C71.1837 37.661 71.045 37.866 70.9433 38.1033C70.8415 38.3381 70.7907 38.5884 70.7907 38.8539C70.7907 39.1198 70.8415 39.3701 70.9433 39.6046C71.045 39.8366 71.1837 40.0401 71.3589 40.2153C71.5342 40.3906 71.7392 40.5292 71.974 40.6309C72.2085 40.7327 72.46 40.7835 72.7287 40.7835C72.9945 40.7835 73.2448 40.7327 73.4793 40.6309C73.7169 40.5292 73.9216 40.3906 74.0941 40.2153C74.2696 40.0401 74.408 39.8366 74.5097 39.6046C74.6114 39.3701 74.6626 39.1198 74.6626 38.8539ZM81.7189 38.8285C81.7189 39.1086 81.6819 39.3784 81.6084 39.6387C81.538 39.8958 81.4363 40.1374 81.3032 40.3636C81.1705 40.5872 81.012 40.7919 80.8283 40.9787C80.6444 41.1623 80.4397 41.3208 80.2133 41.4535C79.9871 41.5866 79.7439 41.6896 79.484 41.7631C79.2266 41.8338 78.9583 41.8692 78.6782 41.8692H76.8463V35.7881H78.6782C78.9583 35.7881 79.2266 35.8247 79.484 35.8983C79.7439 35.969 79.9871 36.0707 80.2133 36.2035C80.4397 36.3365 80.6444 36.4963 80.8283 36.6827C81.012 36.8666 81.1705 37.0717 81.3032 37.2978C81.4363 37.5211 81.538 37.7627 81.6084 38.023C81.6819 38.2801 81.7189 38.5487 81.7189 38.8285ZM80.5017 38.8285C80.5017 38.5769 80.4536 38.3409 80.3575 38.1204C80.2644 37.8998 80.1342 37.7075 79.9673 37.5437C79.8035 37.3769 79.6096 37.2454 79.3863 37.1492C79.1658 37.053 78.9297 37.005 78.6782 37.005H78.0718V40.652H78.6782C78.9297 40.652 79.1658 40.6055 79.3863 40.5121C79.6096 40.416 79.8035 40.286 79.9673 40.1219C80.1342 39.9551 80.2644 39.7615 80.3575 39.541C80.4536 39.3177 80.5017 39.0801 80.5017 38.8285ZM84.9543 37.6114C84.9543 37.3598 85.0021 37.1238 85.0982 36.9032C85.1944 36.6827 85.3247 36.4907 85.4884 36.3266C85.6553 36.1597 85.8489 36.0282 86.0694 35.9321C86.2899 35.8359 86.526 35.7881 86.7775 35.7881H89.5682V37.005H86.7775C86.6929 37.005 86.6138 37.0205 86.5403 37.0518C86.4667 37.0828 86.4016 37.1266 86.3451 37.1833C86.2915 37.237 86.249 37.3006 86.218 37.3741C86.1867 37.4476 86.1711 37.5267 86.1711 37.6114C86.1711 37.6963 86.1867 37.777 86.218 37.8533C86.249 37.9268 86.2915 37.9916 86.3451 38.0484C86.4016 38.1021 86.4667 38.1446 86.5403 38.1756C86.6138 38.2066 86.6929 38.2221 86.7775 38.2221H87.9947C88.2462 38.2221 88.4826 38.2702 88.7028 38.3663C88.9265 38.4597 89.12 38.5897 89.2841 38.7565C89.4506 38.9203 89.5809 39.1142 89.674 39.3375C89.7701 39.558 89.8182 39.7941 89.8182 40.0456C89.8182 40.2972 89.7701 40.5332 89.674 40.7538C89.5809 40.9743 89.4506 41.1682 89.2841 41.3347C89.12 41.4988 88.9265 41.6288 88.7028 41.7249C88.4826 41.8211 88.2462 41.8692 87.9947 41.8692H85.2933V40.652H87.9947C88.0797 40.652 88.1588 40.6365 88.2323 40.6055C88.3058 40.5745 88.3694 40.532 88.423 40.4783C88.4795 40.4216 88.5235 40.3567 88.5546 40.2832C88.5856 40.2097 88.6011 40.1306 88.6011 40.0456C88.6011 39.961 88.5856 39.8816 88.5546 39.808C88.5235 39.7345 88.4795 39.6709 88.423 39.6173C88.3694 39.5608 88.3058 39.5171 88.2323 39.4858C88.1588 39.4547 88.0797 39.4392 87.9947 39.4392H86.7775C86.526 39.4392 86.2899 39.3912 86.0694 39.295C85.8489 39.1989 85.6553 39.0689 85.4884 38.9048C85.3247 38.7382 85.1944 38.5444 85.0982 38.3238C85.0021 38.1005 84.9543 37.8632 84.9543 37.6114ZM95.0596 39.558C95.0596 39.8974 94.9988 40.2138 94.8772 40.5078C94.7556 40.7991 94.5903 41.0522 94.3812 41.2671C94.1719 41.479 93.9259 41.6474 93.6433 41.7718C93.3632 41.8931 93.0624 41.9538 92.7401 41.9538C92.4206 41.9538 92.1194 41.8931 91.8365 41.7718C91.5568 41.6474 91.3108 41.479 91.0989 41.2671C90.8896 41.0522 90.7242 40.7991 90.6027 40.5078C90.4811 40.2138 90.4203 39.8974 90.4203 39.558C90.4203 39.2131 90.4811 38.8936 90.6027 38.5996C90.7242 38.3055 90.8896 38.0524 91.0989 37.8406C91.3108 37.6256 91.5568 37.4575 91.8365 37.3359C92.1194 37.2143 92.4206 37.1535 92.7401 37.1535C93.0624 37.1535 93.3632 37.2115 93.6433 37.3272C93.9259 37.4405 94.1719 37.603 94.3812 37.8151C94.5903 38.0242 94.7556 38.2773 94.8772 38.5742C94.9988 38.8682 95.0596 39.1961 95.0596 39.558ZM93.8933 39.558C93.8933 39.3713 93.8623 39.2032 93.8003 39.0534C93.7407 38.9008 93.6588 38.7705 93.5543 38.6632C93.4495 38.5531 93.3266 38.4696 93.1852 38.4129C93.0465 38.3536 92.8983 38.3238 92.7401 38.3238C92.5816 38.3238 92.4318 38.3536 92.2903 38.4129C92.152 38.4696 92.0304 38.5531 91.9259 38.6632C91.8238 38.7705 91.7435 38.9008 91.6839 39.0534C91.6247 39.2032 91.5949 39.3713 91.5949 39.558C91.5949 39.7333 91.6247 39.8958 91.6839 40.0456C91.7435 40.1955 91.8238 40.3254 91.9259 40.4358C92.0304 40.546 92.152 40.6337 92.2903 40.6989C92.4318 40.7609 92.5816 40.7919 92.7401 40.7919C92.8983 40.7919 93.0465 40.7625 93.1852 40.7029C93.3266 40.6437 93.4495 40.5602 93.5543 40.4529C93.6588 40.3453 93.7407 40.2153 93.8003 40.0627C93.8623 39.9101 93.8933 39.7417 93.8933 39.558ZM97.2944 41.8692H96.1365V38.4808H95.5726V37.3272H96.1365V37.111C96.1365 36.8313 96.189 36.5682 96.2935 36.3223C96.4008 36.0763 96.5466 35.8629 96.7302 35.6821C96.9169 35.4981 97.1331 35.3539 97.3791 35.2494C97.6251 35.142 97.8881 35.0884 98.1679 35.0884H99.0373V36.2416H98.1679C98.0435 36.2416 97.9275 36.2643 97.8202 36.3095C97.7157 36.352 97.6235 36.4128 97.5444 36.4919C97.4681 36.5682 97.4073 36.66 97.362 36.7677C97.3168 36.8722 97.2944 36.9867 97.2944 37.111V37.3272H98.715V38.4808H97.2944V41.8692ZM101.717 41.8692C101.437 41.8692 101.174 41.8168 100.928 41.7122C100.683 41.6049 100.466 41.4591 100.28 41.2755C100.096 41.0888 99.9502 40.8726 99.8428 40.6266C99.7383 40.3806 99.6859 40.1179 99.6859 39.8378V38.4895H99.122V37.3359H99.6859V35.5208H100.839V37.3359H102.595V38.4895H100.839V39.8378C100.839 39.9594 100.862 40.0739 100.907 40.1815C100.952 40.286 101.015 40.3778 101.094 40.4569C101.173 40.536 101.266 40.5999 101.374 40.6477C101.481 40.693 101.596 40.7156 101.717 40.7156H102.595V41.8692H101.717ZM109.155 40.228C109.155 40.4656 109.11 40.6902 109.019 40.9023C108.929 41.1114 108.805 41.2938 108.646 41.4492C108.491 41.6049 108.307 41.7277 108.095 41.8183C107.886 41.9089 107.661 41.9538 107.421 41.9538C107.206 41.9538 107 41.9172 106.802 41.8437C106.604 41.7674 106.424 41.657 106.263 41.5131C106.105 41.657 105.927 41.7674 105.729 41.8437C105.534 41.9172 105.327 41.9538 105.11 41.9538C104.869 41.9538 104.644 41.9089 104.435 41.8183C104.226 41.7277 104.042 41.6049 103.884 41.4492C103.728 41.2938 103.606 41.1114 103.515 40.9023C103.424 40.6902 103.379 40.4656 103.379 40.228V37.3359H104.537V40.228C104.537 40.3071 104.551 40.3822 104.58 40.4529C104.611 40.5205 104.652 40.5813 104.702 40.635C104.756 40.6862 104.817 40.7271 104.885 40.7581C104.956 40.7863 105.031 40.8006 105.11 40.8006C105.189 40.8006 105.264 40.7863 105.334 40.7581C105.405 40.7271 105.467 40.6862 105.521 40.635C105.575 40.5813 105.616 40.5205 105.644 40.4529C105.675 40.3822 105.691 40.3071 105.691 40.228V37.3359H106.844V40.228C106.844 40.3071 106.86 40.3822 106.891 40.4529C106.922 40.5205 106.963 40.5813 107.014 40.635C107.068 40.6862 107.128 40.7271 107.196 40.7581C107.267 40.7863 107.342 40.8006 107.421 40.8006C107.5 40.8006 107.575 40.7863 107.646 40.7581C107.716 40.7271 107.777 40.6862 107.828 40.635C107.882 40.5813 107.924 40.5205 107.955 40.4529C107.986 40.3822 108.002 40.3071 108.002 40.228V37.3359H109.155V40.228ZM114.566 41.8692H114.286L113.837 41.2457C113.726 41.3447 113.609 41.438 113.485 41.5258C113.363 41.6105 113.235 41.6855 113.099 41.7504C112.963 41.8127 112.823 41.862 112.679 41.8989C112.538 41.9355 112.394 41.9538 112.247 41.9538C111.927 41.9538 111.626 41.9002 111.343 41.7929C111.064 41.6855 110.818 41.5298 110.605 41.3264C110.396 41.1201 110.231 40.8682 110.109 40.5714C109.988 40.2745 109.927 39.9368 109.927 39.558C109.927 39.2047 109.988 38.8809 110.109 38.5869C110.231 38.29 110.396 38.0357 110.605 37.8235C110.818 37.6114 111.064 37.4476 111.343 37.3316C111.626 37.2128 111.927 37.1535 112.247 37.1535C112.394 37.1535 112.539 37.1718 112.683 37.2088C112.828 37.2454 112.967 37.2962 113.103 37.3614C113.239 37.4262 113.368 37.5028 113.489 37.5903C113.613 37.6781 113.73 37.7727 113.837 37.8744L114.286 37.3359H114.566V41.8692ZM113.4 39.558C113.4 39.3995 113.369 39.2469 113.307 39.0999C113.247 38.9501 113.165 38.8186 113.061 38.7057C112.956 38.5897 112.833 38.4979 112.692 38.4299C112.553 38.3592 112.405 38.3238 112.247 38.3238C112.088 38.3238 111.938 38.3508 111.797 38.4045C111.658 38.4581 111.537 38.5372 111.432 38.6421C111.331 38.7466 111.25 38.8766 111.191 39.0323C111.131 39.1849 111.102 39.3601 111.102 39.558C111.102 39.7559 111.131 39.9327 111.191 40.0881C111.25 40.2407 111.331 40.3695 111.432 40.474C111.537 40.5785 111.658 40.6576 111.797 40.7116C111.938 40.7653 112.088 40.7919 112.247 40.7919C112.405 40.7919 112.553 40.7581 112.692 40.6902C112.833 40.6195 112.956 40.5277 113.061 40.4147C113.165 40.2987 113.247 40.1672 113.307 40.0202C113.369 39.8704 113.4 39.7162 113.4 39.558ZM116.784 41.8692H115.626V37.3272H115.906L116.288 37.866C116.474 37.6963 116.686 37.5664 116.924 37.4758C117.161 37.3825 117.407 37.3359 117.662 37.3359H118.684V38.4895H117.662C117.54 38.4895 117.426 38.5118 117.318 38.5571C117.211 38.6024 117.118 38.6647 117.038 38.7438C116.959 38.8229 116.897 38.9163 116.852 39.0236C116.806 39.1312 116.784 39.2457 116.784 39.3673V41.8692ZM121.118 40.7581C121.163 40.7724 121.208 40.782 121.253 40.7879C121.299 40.7907 121.344 40.7919 121.389 40.7919C121.502 40.7919 121.611 40.7764 121.716 40.7454C121.82 40.7144 121.918 40.6703 122.008 40.6139C122.102 40.5546 122.184 40.4839 122.254 40.402C122.328 40.317 122.387 40.2237 122.432 40.1219L123.28 40.9743C123.173 41.1269 123.049 41.264 122.907 41.3856C122.769 41.5072 122.618 41.6105 122.454 41.6952C122.293 41.7801 122.121 41.8437 121.941 41.8862C121.762 41.9315 121.579 41.9538 121.389 41.9538C121.07 41.9538 120.769 41.8946 120.486 41.7758C120.206 41.657 119.96 41.4917 119.748 41.2798C119.539 41.0677 119.373 40.8161 119.252 40.5249C119.13 40.2308 119.07 39.9085 119.07 39.558C119.07 39.1989 119.13 38.871 119.252 38.5742C119.373 38.2773 119.539 38.0242 119.748 37.8151C119.96 37.6058 120.206 37.4432 120.486 37.3272C120.769 37.2115 121.07 37.1535 121.389 37.1535C121.579 37.1535 121.764 37.1762 121.945 37.2215C122.126 37.2664 122.297 37.3316 122.458 37.4166C122.622 37.5013 122.775 37.6058 122.916 37.7302C123.057 37.8518 123.182 37.9888 123.289 38.1415L121.118 40.7581ZM121.711 38.3707C121.658 38.3508 121.604 38.3381 121.55 38.3325C121.499 38.3266 121.446 38.3238 121.389 38.3238C121.231 38.3238 121.081 38.3536 120.94 38.4129C120.801 38.4696 120.68 38.5515 120.575 38.6588C120.473 38.7665 120.393 38.8964 120.333 39.049C120.274 39.1989 120.244 39.3685 120.244 39.558C120.244 39.6005 120.246 39.6483 120.249 39.7023C120.254 39.7559 120.261 39.8111 120.27 39.8676C120.281 39.9213 120.294 39.9737 120.308 40.0245C120.322 40.0754 120.34 40.1207 120.363 40.1601L121.711 38.3707ZM126.423 37.6114C126.423 37.3598 126.471 37.1238 126.567 36.9032C126.663 36.6827 126.793 36.4907 126.957 36.3266C127.124 36.1597 127.317 36.0282 127.538 35.9321C127.759 35.8359 127.995 35.7881 128.246 35.7881H131.036V37.005H128.246C128.161 37.005 128.082 37.0205 128.009 37.0518C127.935 37.0828 127.87 37.1266 127.813 37.1833C127.76 37.237 127.717 37.3006 127.686 37.3741C127.655 37.4476 127.64 37.5267 127.64 37.6114C127.64 37.6963 127.655 37.777 127.686 37.8533C127.717 37.9268 127.76 37.9916 127.813 38.0484C127.87 38.1021 127.935 38.1446 128.009 38.1756C128.082 38.2066 128.161 38.2221 128.246 38.2221H129.463C129.715 38.2221 129.951 38.2702 130.171 38.3663C130.395 38.4597 130.588 38.5897 130.752 38.7565C130.919 38.9203 131.049 39.1142 131.143 39.3375C131.239 39.558 131.287 39.7941 131.287 40.0456C131.287 40.2972 131.239 40.5332 131.143 40.7538C131.049 40.9743 130.919 41.1682 130.752 41.3347C130.588 41.4988 130.395 41.6288 130.171 41.7249C129.951 41.8211 129.715 41.8692 129.463 41.8692H126.762V40.652H129.463C129.548 40.652 129.627 40.6365 129.701 40.6055C129.774 40.5745 129.838 40.532 129.891 40.4783C129.948 40.4216 129.992 40.3567 130.023 40.2832C130.054 40.2097 130.07 40.1306 130.07 40.0456C130.07 39.961 130.054 39.8816 130.023 39.808C129.992 39.7345 129.948 39.6709 129.891 39.6173C129.838 39.5608 129.774 39.5171 129.701 39.4858C129.627 39.4547 129.548 39.4392 129.463 39.4392H128.246C127.995 39.4392 127.759 39.3912 127.538 39.295C127.317 39.1989 127.124 39.0689 126.957 38.9048C126.793 38.7382 126.663 38.5444 126.567 38.3238C126.471 38.1005 126.423 37.8632 126.423 37.6114ZM136.528 39.558C136.528 39.8974 136.467 40.2138 136.346 40.5078C136.224 40.7991 136.059 41.0522 135.85 41.2671C135.64 41.479 135.394 41.6474 135.112 41.7718C134.832 41.8931 134.531 41.9538 134.208 41.9538C133.889 41.9538 133.588 41.8931 133.305 41.7718C133.025 41.6474 132.779 41.479 132.567 41.2671C132.358 41.0522 132.193 40.7991 132.071 40.5078C131.949 40.2138 131.889 39.8974 131.889 39.558C131.889 39.2131 131.949 38.8936 132.071 38.5996C132.193 38.3055 132.358 38.0524 132.567 37.8406C132.779 37.6256 133.025 37.4575 133.305 37.3359C133.588 37.2143 133.889 37.1535 134.208 37.1535C134.531 37.1535 134.832 37.2115 135.112 37.3272C135.394 37.4405 135.64 37.603 135.85 37.8151C136.059 38.0242 136.224 38.2773 136.346 38.5742C136.467 38.8682 136.528 39.1961 136.528 39.558ZM135.362 39.558C135.362 39.3713 135.331 39.2032 135.269 39.0534C135.209 38.9008 135.127 38.7705 135.023 38.6632C134.918 38.5531 134.795 38.4696 134.653 38.4129C134.515 38.3536 134.367 38.3238 134.208 38.3238C134.05 38.3238 133.9 38.3536 133.759 38.4129C133.62 38.4696 133.499 38.5531 133.394 38.6632C133.292 38.7705 133.212 38.9008 133.153 39.0534C133.093 39.2032 133.063 39.3713 133.063 39.558C133.063 39.7333 133.093 39.8958 133.153 40.0456C133.212 40.1955 133.292 40.3254 133.394 40.4358C133.499 40.546 133.62 40.6337 133.759 40.6989C133.9 40.7609 134.05 40.7919 134.208 40.7919C134.367 40.7919 134.515 40.7625 134.653 40.7029C134.795 40.6437 134.918 40.5602 135.023 40.4529C135.127 40.3453 135.209 40.2153 135.269 40.0627C135.331 39.9101 135.362 39.7417 135.362 39.558ZM138.508 41.8692H137.342V35.5208H138.508V41.8692ZM142.906 41.3391C142.812 41.4238 142.712 41.5044 142.605 41.5807C142.5 41.6542 142.39 41.7194 142.274 41.7758C142.158 41.8295 142.038 41.872 141.913 41.903C141.792 41.9371 141.668 41.9538 141.54 41.9538C141.26 41.9538 140.997 41.9045 140.751 41.8056C140.506 41.7066 140.289 41.5667 140.103 41.3856C139.919 41.202 139.773 40.9799 139.666 40.72C139.561 40.4569 139.509 40.1629 139.509 39.8378V37.3272H140.662V39.8378C140.662 39.9904 140.685 40.1275 140.73 40.2491C140.778 40.3679 140.842 40.4684 140.921 40.5503C141 40.6322 141.092 40.6945 141.197 40.737C141.304 40.7792 141.419 40.8006 141.54 40.8006C141.659 40.8006 141.771 40.7736 141.875 40.72C141.983 40.6635 142.076 40.59 142.155 40.4994C142.234 40.4089 142.297 40.3071 142.342 40.1942C142.387 40.0782 142.409 39.9594 142.409 39.8378V37.3272H143.567V41.8692H143.287L142.906 41.3391ZM146.905 41.8692C146.624 41.8692 146.362 41.8168 146.116 41.7122C145.87 41.6049 145.654 41.4591 145.467 41.2755C145.283 41.0888 145.137 40.8726 145.03 40.6266C144.926 40.3806 144.873 40.1179 144.873 39.8378V38.4895H144.309V37.3359H144.873V35.5208H146.027V37.3359H147.782V38.4895H146.027V39.8378C146.027 39.9594 146.049 40.0739 146.095 40.1815C146.14 40.286 146.202 40.3778 146.281 40.4569C146.36 40.536 146.454 40.5999 146.561 40.6477C146.669 40.693 146.783 40.7156 146.905 40.7156H147.782V41.8692H146.905ZM149.975 36.0934C149.975 36.2007 149.953 36.3012 149.911 36.3945C149.871 36.4876 149.816 36.5698 149.745 36.6405C149.675 36.7081 149.592 36.7633 149.495 36.8058C149.402 36.8452 149.302 36.8651 149.194 36.8651C149.087 36.8651 148.985 36.8452 148.889 36.8058C148.796 36.7633 148.714 36.7081 148.643 36.6405C148.575 36.5698 148.52 36.4876 148.478 36.3945C148.438 36.3012 148.418 36.2007 148.418 36.0934C148.418 35.9888 148.438 35.8899 148.478 35.7965C148.52 35.7004 148.575 35.6185 148.643 35.5505C148.714 35.4798 148.796 35.4246 148.889 35.3852C148.985 35.3427 149.087 35.3216 149.194 35.3216C149.302 35.3216 149.402 35.3427 149.495 35.3852C149.592 35.4246 149.675 35.4798 149.745 35.5505C149.816 35.6185 149.871 35.7004 149.911 35.7965C149.953 35.8899 149.975 35.9888 149.975 36.0934ZM149.775 41.8692H148.609V37.3272H149.775V41.8692ZM155.224 39.558C155.224 39.8974 155.164 40.2138 155.042 40.5078C154.92 40.7991 154.755 41.0522 154.546 41.2671C154.337 41.479 154.091 41.6474 153.808 41.7718C153.528 41.8931 153.227 41.9538 152.905 41.9538C152.585 41.9538 152.284 41.8931 152.001 41.7718C151.722 41.6474 151.476 41.479 151.263 41.2671C151.054 41.0522 150.889 40.7991 150.768 40.5078C150.646 40.2138 150.585 39.8974 150.585 39.558C150.585 39.2131 150.646 38.8936 150.768 38.5996C150.889 38.3055 151.054 38.0524 151.263 37.8406C151.476 37.6256 151.722 37.4575 152.001 37.3359C152.284 37.2143 152.585 37.1535 152.905 37.1535C153.227 37.1535 153.528 37.2115 153.808 37.3272C154.091 37.4405 154.337 37.603 154.546 37.8151C154.755 38.0242 154.92 38.2773 155.042 38.5742C155.164 38.8682 155.224 39.1961 155.224 39.558ZM154.058 39.558C154.058 39.3713 154.027 39.2032 153.965 39.0534C153.906 38.9008 153.824 38.7705 153.719 38.6632C153.614 38.5531 153.492 38.4696 153.35 38.4129C153.211 38.3536 153.063 38.3238 152.905 38.3238C152.746 38.3238 152.597 38.3536 152.455 38.4129C152.317 38.4696 152.195 38.5531 152.09 38.6632C151.989 38.7705 151.908 38.9008 151.849 39.0534C151.79 39.2032 151.76 39.3713 151.76 39.558C151.76 39.7333 151.79 39.8958 151.849 40.0456C151.908 40.1955 151.989 40.3254 152.09 40.4358C152.195 40.546 152.317 40.6337 152.455 40.6989C152.597 40.7609 152.746 40.7919 152.905 40.7919C153.063 40.7919 153.211 40.7625 153.35 40.7029C153.492 40.6437 153.614 40.5602 153.719 40.4529C153.824 40.3453 153.906 40.2153 153.965 40.0627C154.027 39.9101 154.058 39.7417 154.058 39.558ZM157.196 41.8692H156.038V37.3272H156.318L156.7 37.7683C156.887 37.5986 157.097 37.4687 157.332 37.3781C157.569 37.2851 157.817 37.2382 158.074 37.2382C158.351 37.2382 158.613 37.2919 158.859 37.3995C159.104 37.504 159.319 37.6495 159.503 37.8362C159.687 38.0199 159.831 38.2364 159.936 38.4851C160.043 38.7311 160.097 38.9938 160.097 39.2739V41.8692H158.939V39.2739C158.939 39.1551 158.916 39.0435 158.871 38.9389C158.826 38.8313 158.764 38.7382 158.685 38.6588C158.605 38.5797 158.514 38.5177 158.409 38.4724C158.305 38.4271 158.193 38.4045 158.074 38.4045C157.952 38.4045 157.838 38.4271 157.73 38.4724C157.623 38.5177 157.53 38.5797 157.451 38.6588C157.372 38.7382 157.309 38.8313 157.264 38.9389C157.219 39.0435 157.196 39.1551 157.196 39.2739V41.8692ZM163.591 41.8692H160.945V40.7156H163.591C163.67 40.7156 163.738 40.6874 163.795 40.6309C163.851 40.5745 163.879 40.5066 163.879 40.4275C163.879 40.3453 163.851 40.2916 163.795 40.2662C163.738 40.2407 163.67 40.228 163.591 40.228H162.387C162.186 40.228 161.998 40.1899 161.823 40.1136C161.647 40.0373 161.495 39.934 161.365 39.804C161.234 39.6709 161.131 39.5171 161.055 39.3418C160.982 39.1663 160.945 38.9783 160.945 38.7776C160.945 38.5769 160.982 38.389 161.055 38.2137C161.131 38.0385 161.234 37.8859 161.365 37.7556C161.495 37.6256 161.647 37.5239 161.823 37.4504C161.998 37.3741 162.186 37.3359 162.387 37.3359H164.732V38.4895H162.387C162.307 38.4895 162.24 38.5177 162.183 38.5742C162.127 38.6306 162.098 38.6985 162.098 38.7776C162.098 38.8598 162.127 38.9302 162.183 38.9898C162.24 39.0462 162.307 39.0745 162.387 39.0745H163.591C163.789 39.0745 163.976 39.1086 164.151 39.1762C164.326 39.2413 164.479 39.3332 164.609 39.452C164.739 39.5708 164.842 39.7134 164.918 39.8803C164.995 40.0472 165.033 40.2296 165.033 40.4275C165.033 40.6282 164.995 40.8161 164.918 40.9914C164.842 41.1638 164.739 41.3164 164.609 41.4492C164.479 41.5795 164.326 41.6824 164.151 41.7591C163.976 41.8326 163.789 41.8692 163.591 41.8692Z" fill="#636B74"/>
</svg>
